<svg xmlns="http://www.w3.org/2000/svg" fill="none" viewBox="0 0 148 52">
  <path fill="url(#a)" d="M30.6 21.1h-8v3.4h8V21Z"/>
  <path fill="url(#b)" d="M30.6 8.1h-8V11h8V8.1Z"/>
  <path fill="url(#c)" d="M22.7 27.2c0 1.9-.5 3.3-1.5 4.4-1 1-2.4 1.5-4.3 1.5-1.8 0-3.2-.5-4.2-1.5s-1.4-2.5-1.4-4.4V8.4h3.3L7.3 0 0 8.4h3.4v18.7c0 2.9.5 5.3 1.7 7.3S8 37.8 10 38.8c2 1 4.3 1.5 6.9 1.5a16 16 0 0 0 7-1.5c2-1 3.7-2.5 5-4.5 1.2-2 1.8-4.3 1.8-7.2v-1.8h-8v1.9Z"/>
  <path fill="url(#d)" d="M30.6 16.9h-8v3h8v-3Z"/>
  <path fill="url(#e)" d="M30.6 12.7h-8v2.8h8v-2.8Z"/>
  <path fill="#0C0D21" d="M57.8 15.9c-1.7-1-3.7-1.6-5.8-1.6a10 10 0 0 0-4.8 1 8.5 8.5 0 0 0-3.2 3v-3.6h-7.9V52h8V36.4c.7 1.2 1.8 2 3.2 2.8a10.8 10.8 0 0 0 14.6-5.1c1-2 1.5-4.2 1.5-6.8 0-2.6-.5-5-1.5-6.9-1-2-2.4-3.5-4.1-4.5Zm-4.1 16a5.4 5.4 0 0 1-4 1.7c-1.6 0-3-.6-4-1.7a6.3 6.3 0 0 1-1.7-4.6c0-2 .5-3.5 1.6-4.6 1.1-1 2.5-1.7 4-1.7 1.6 0 3 .6 4 1.7 1.2 1.1 1.7 2.6 1.7 4.6 0 1.9-.5 3.4-1.6 4.6ZM75.5 8.1h-8V40h18.3v-6H75.5V8Z"/>
  <path fill="#0C0D21" d="m103.9 14.7-6 15.8L92 14.7h-8.8L93.7 39l-6 12.9h8.6l16.2-37.3h-8.6ZM117.7 40h8V21h4.2v-6.4h-4.3v-.3c0-1.3.3-2.2 1-2.7.6-.5 1.6-.8 3.2-.7V4.5h-1.3c-3.6 0-6.2.7-8 2.3-1.9 1.7-2.8 4-2.8 7.1v.8H115V21h2.8V40ZM145.2 33.4c-.9 0-1.5-.2-1.9-.5-.3-.4-.5-.9-.5-1.7V21.1h5.2v-6.4h-5.2V8.5h-8v6.2h-3.1V21h3.2v10c0 3.2.8 5.4 2.4 6.8a10 10 0 0 0 6.7 2h4v-6.5h-2.8Z"/>
  <path fill="url(#f)" d="M104.2 50.2h.9v-2.8h2.2v-.6H105v-2h2.7V44h-3.6v6Z"/>
  <path fill="url(#g)" d="M109.6 44h-.8v6.2h.8V44Z"/>
  <path fill="url(#h)" d="m115 49-3.2-5h-.8v6.2h.8v-4.9l3.3 4.9h.8V44h-.8v4.8Z"/>
  <path fill="url(#i)" d="m119.1 44.1-2.2 6h.8l.5-1.3h2.8l.5 1.4h.8l-2.2-6.1h-1Zm-.6 4 1-3 1.2 3h-2.2Z"/>
  <path fill="url(#j)" d="m127.4 49-3.3-5h-.8v6.2h.8v-4.9l3.3 4.9h.8V44h-.8v4.8Z"/>
  <path fill="url(#k)" d="m131.2 45 1.2-.3c.5 0 .9 0 1.2.3.3.2.6.5.7.8h1c-.2-.6-.6-1-1.1-1.3-.5-.4-1.1-.5-1.8-.5-.6 0-1 .1-1.6.4a3 3 0 0 0-1 1.1c-.4.5-.5 1-.5 1.6 0 .6.1 1.1.4 1.6.3.5.7.9 1.1 1.1.5.3 1 .4 1.6.4.7 0 1.3-.1 1.8-.5.5-.3.9-.7 1.1-1.3h-1a2 2 0 0 1-.7.8c-.3.2-.7.3-1.2.3-.4 0-.8 0-1.2-.3-.3-.2-.6-.4-.8-.8-.2-.4-.3-.8-.3-1.3s.1-1 .3-1.3l.8-.8Z"/>
  <path fill="url(#l)" d="M137.3 44h-.8v6.2h.8V44Z"/>
  <path fill="url(#m)" d="m140.6 44.1-2.3 6h.9l.5-1.3h2.7l.5 1.4h.9l-2.3-6.1h-1Zm-.7 4 1.2-3 1 3H140Z"/>
  <path fill="url(#n)" d="M145.6 44h-.8v6.2h3v-.7h-2.2v-5.4Z"/>
  <defs>
    <linearGradient id="a" x1="8" x2="28.8" y1="4.5" y2="25.8" gradientUnits="userSpaceOnUse">
      <stop stop-color="#209EEB"/>
      <stop offset="1" stop-color="#143FCC"/>
    </linearGradient>
    <linearGradient id="b" x1="14.7" x2="35.6" y1="-2.1" y2="19.2" gradientUnits="userSpaceOnUse">
      <stop stop-color="#209EEB"/>
      <stop offset="1" stop-color="#143FCC"/>
    </linearGradient>
    <linearGradient id="c" x1=".5" x2="21.3" y1="11.9" y2="33.1" gradientUnits="userSpaceOnUse">
      <stop stop-color="#209EEB"/>
      <stop offset="1" stop-color="#143FCC"/>
    </linearGradient>
    <linearGradient id="d" x1="10.2" x2="31.1" y1="2.3" y2="23.6" gradientUnits="userSpaceOnUse">
      <stop stop-color="#209EEB"/>
      <stop offset="1" stop-color="#143FCC"/>
    </linearGradient>
    <linearGradient id="e" x1="12.4" x2="33.3" y1=".2" y2="21.5" gradientUnits="userSpaceOnUse">
      <stop stop-color="#209EEB"/>
      <stop offset="1" stop-color="#143FCC"/>
    </linearGradient>
    <linearGradient id="f" x1="106" x2="106" y1="44.2" y2="51" gradientUnits="userSpaceOnUse">
      <stop stop-color="#209EEB"/>
      <stop offset="1" stop-color="#143FCC"/>
    </linearGradient>
    <linearGradient id="g" x1="109.2" x2="109.2" y1="44.2" y2="51" gradientUnits="userSpaceOnUse">
      <stop stop-color="#209EEB"/>
      <stop offset="1" stop-color="#143FCC"/>
    </linearGradient>
    <linearGradient id="h" x1="113.4" x2="113.4" y1="44.2" y2="51" gradientUnits="userSpaceOnUse">
      <stop stop-color="#209EEB"/>
      <stop offset="1" stop-color="#143FCC"/>
    </linearGradient>
    <linearGradient id="i" x1="119.6" x2="119.6" y1="44.2" y2="51" gradientUnits="userSpaceOnUse">
      <stop stop-color="#209EEB"/>
      <stop offset="1" stop-color="#143FCC"/>
    </linearGradient>
    <linearGradient id="j" x1="125.8" x2="125.8" y1="44.2" y2="51" gradientUnits="userSpaceOnUse">
      <stop stop-color="#209EEB"/>
      <stop offset="1" stop-color="#143FCC"/>
    </linearGradient>
    <linearGradient id="k" x1="132.3" x2="132.3" y1="44.2" y2="51" gradientUnits="userSpaceOnUse">
      <stop stop-color="#209EEB"/>
      <stop offset="1" stop-color="#143FCC"/>
    </linearGradient>
    <linearGradient id="l" x1="136.9" x2="136.9" y1="44.2" y2="51" gradientUnits="userSpaceOnUse">
      <stop stop-color="#209EEB"/>
      <stop offset="1" stop-color="#143FCC"/>
    </linearGradient>
    <linearGradient id="m" x1="141.1" x2="141.1" y1="44.2" y2="51" gradientUnits="userSpaceOnUse">
      <stop stop-color="#209EEB"/>
      <stop offset="1" stop-color="#143FCC"/>
    </linearGradient>
    <linearGradient id="n" x1="146.3" x2="146.3" y1="44.2" y2="51" gradientUnits="userSpaceOnUse">
      <stop stop-color="#209EEB"/>
      <stop offset="1" stop-color="#143FCC"/>
    </linearGradient>
  </defs>
</svg>
