<svg xmlns="http://www.w3.org/2000/svg" fill="none" viewBox="0 0 115 118">
  <path fill="#209EEB" d="M76.7073 118c20.7764 0 37.6187-16.843 37.6187-37.619 0-20.7764-16.8423-37.619-37.6187-37.619-20.7764 0-37.6189 16.8426-37.6189 37.619 0 20.776 16.8425 37.619 37.6189 37.619ZM22.924 45.8481c12.6606 0 22.9241-10.2635 22.9241-22.9241C45.8481 10.2634 35.5846 0 22.924 0 10.2634 0 0 10.2634 0 22.924c0 12.6606 10.2634 22.9241 22.924 22.9241Z" opacity=".5"/>
  <path stroke="#0C0D21" stroke-linecap="round" stroke-linejoin="round" stroke-width="2" d="M91.0347 66.8618V27.6999c0-1.7879-1.445-3.2329-3.2328-3.2329H28.6794c-1.7879 0-3.2329 1.445-3.2329 3.2329v39.6028l65.5638-.4164.0244-.0245ZM50.4524 32.8677h33.5533M50.4524 39.7497h15.1602M50.4524 50.8444h17.4134M50.4524 57.7264h10.115"/>
  <path stroke="#0C0D21" stroke-linecap="round" stroke-linejoin="round" stroke-width="2" d="M40.9988 32.8677h-7.9597v8.9394h8.6944v-3.4533"/>
  <path stroke="#0C0D21" stroke-linecap="round" stroke-linejoin="round" stroke-width="2" d="m34.9004 35.2679 2.4981 2.89 8.4741-7.7638M40.9988 51.3832h-7.9597v8.9394h8.6944v-3.4533"/>
  <path stroke="#0C0D21" stroke-linecap="round" stroke-linejoin="round" stroke-width="2" d="m34.9004 53.7833 2.4981 2.89 8.4741-7.7638M102.766 80.3812H13.2988s-5.33912-.1959 12.1723-13.1029l65.5637-.4164s18.0992 12.5887 11.7562 13.5193h-.025ZM24.1487 75.1398H92.186"/>
</svg>
