<svg xmlns="http://www.w3.org/2000/svg" fill="none" viewBox="0 0 150 119">
  <path fill="#209EEB" d="M28.5889 57.1778c15.7892 0 28.5888-12.7997 28.5888-28.5889S44.3781 0 28.5889 0 0 12.7997 0 28.5889s12.7997 28.5889 28.5889 28.5889ZM103.085 118.936c25.91 0 46.915-21.0041 46.915-46.9146s-21.005-46.9151-46.915-46.9151c-25.9105 0-46.9151 21.0046-46.9151 46.9151 0 25.9105 21.0046 46.9146 46.9151 46.9146Z" opacity=".5"/>
  <path stroke="#0C0D21" stroke-linecap="round" stroke-miterlimit="10" stroke-width="2" d="M90.8371 16.4628H30.1163c-3.5424 0-6.4142 2.8717-6.4142 6.4141v32.2236c0 3.5425 2.8718 6.4142 6.4142 6.4142h60.7208c3.5425 0 6.4142-2.8717 6.4142-6.4142V22.8769c0-3.5424-2.8717-6.4141-6.4142-6.4141Z"/>
  <path stroke="#0C0D21" stroke-linecap="round" stroke-miterlimit="10" stroke-width="2" d="M124.557 49.0228v32.2236c0 3.5431-2.871 6.4142-6.414 6.4142H57.4222c-3.543 0-6.4141-2.8711-6.4141-6.4142V61.5152h39.7983c3.5431 0 6.4448-2.8711 6.4448-6.4142V42.6086h20.8918c3.543 0 6.414 2.8711 6.414 6.4142ZM56.1395 49.603H29.9941M23.7021 38.9721h73.5492M23.7021 25.0781h73.5492M60.4763 71.7776h16.6769M61.5149 79.9633H93.036"/>
</svg>
