<svg xmlns="http://www.w3.org/2000/svg" fill="none" viewBox="0 0 130 130">
  <path fill="#CBDFFF" d="M64.7 129.7A64.7 64.7 0 1 0 64.7.3a64.7 64.7 0 0 0 0 129.4Z"/>
  <path fill="#143FCC" d="M21.7 43.3a21.6 21.6 0 1 0 0-43.3 21.6 21.6 0 0 0 0 43.3ZM107.7 130a21.6 21.6 0 1 0 0-43.3 21.6 21.6 0 0 0 0 43.3Z" opacity=".5"/>
  <path stroke="#000" stroke-linecap="round" stroke-linejoin="round" stroke-width="2" d="m40.7 42.3-10.5-5.5c-1.3-.7-3-.2-3.7 1.2L11.7 66.3c-.8 1.4-.2 3 1.1 3.7l10.5 5.5c1.3.7 3 .2 3.7-1.1L41.8 46c.7-1.3.2-3-1.1-3.7ZM106.2 76.1l10.4-5.4a2.8 2.8 0 0 0 1.2-3.8l-14.9-28.3a2.8 2.8 0 0 0-3.7-1.2L88.8 43a2.8 2.8 0 0 0-1.2 3.7L102.4 75a2.8 2.8 0 0 0 3.8 1.1Z"/>
  <path stroke="#000" stroke-linecap="round" stroke-linejoin="round" stroke-width="2" d="m67.2 56.2 12.4 7.5s5.3 4 2.9 6.7-8 .3-9.8-.9l-11.1-7.1L81 74.6s5 3.3.7 7.2C79 84.3 56.8 70 56.8 70l19.4 12c1.7 1.7 3 3.5 2.2 5.5-.6 1.8-2.3 3-6.7 1L69 86.8a105.4 105.4 0 0 0-14.7-8.5l11.1 7.2c2.2 1.5 4 3.4 3.4 5.7-.6 2.2-1.6 3-6.2 1.5-8.3-2.6-33-15-32.5-24.4l10-19H51"/>
  <path stroke="#000" stroke-miterlimit="10" stroke-width="2" d="M67.2 56.2c-3.1-1-5.3-1.4-13.3 1.2-9.2 3-5.6-10.2 6.2-11 12.7-.8 28.8 2.7 28.8 2.7L100 70.5S89 88.9 67.5 93.2"/>
</svg>
