<svg xmlns="http://www.w3.org/2000/svg" fill="none" viewBox="0 0 130 130">
  <path fill="#CBDFFF" d="M64.7 129.7A64.7 64.7 0 1 0 64.7.3a64.7 64.7 0 0 0 0 129.4Z"/>
  <path fill="#143FCC" d="M21.7 43.3a21.6 21.6 0 1 0 0-43.3 21.6 21.6 0 0 0 0 43.3ZM107.7 130a21.6 21.6 0 1 0 0-43.3 21.6 21.6 0 0 0 0 43.3Z" opacity=".5"/>
  <path stroke="#000" stroke-linecap="round" stroke-linejoin="round" stroke-width="2" d="M46.2 60.3h-9.5A2.7 2.7 0 0 0 34 63v29.2c0 1.5 1.2 2.7 2.7 2.7h9.5c1.5 0 2.7-1.2 2.7-2.7V63c0-1.5-1.2-2.7-2.7-2.7ZM70 65h-9.5a2.7 2.7 0 0 0-2.7 2.7v24.5c0 1.5 1.2 2.7 2.7 2.7h9.4c1.5 0 2.7-1.2 2.7-2.7V67.7c0-1.5-1.2-2.7-2.7-2.7ZM94.2 47.2h-9.5A2.7 2.7 0 0 0 82 50v42.3c0 1.5 1.2 2.7 2.7 2.7h9.5c1.4 0 2.7-1.2 2.7-2.7V49.9c0-1.5-1.3-2.7-2.7-2.7ZM25.6 94.9H104M74.7 30.8h9.6L59.5 56.1l-6.8-8H34M84.3 39.7v-8.9"/>
</svg>
