<svg xmlns="http://www.w3.org/2000/svg" fill="none" viewBox="0 0 119 119">
  <path fill="#209EEB" d="M95.6196 46.7607C108.532 46.7607 119 36.293 119 23.3804 119 10.4677 108.532 0 95.6196 0 82.707 0 72.2393 10.4677 72.2393 23.3804c0 12.9126 10.4677 23.3803 23.3803 23.3803ZM38.3678 118.899c21.1899 0 38.3678-17.178 38.3678-38.3677 0-21.1899-17.1779-38.3678-38.3678-38.3678C17.1778 42.1635 0 59.3414 0 80.5313c0 21.1897 17.1778 38.3677 38.3678 38.3677Z" opacity=".5"/>
  <path stroke="#1D1D1B" stroke-miterlimit="10" stroke-width="2" d="M82.3311 36.8439c0 3.4222-1.2739 6.5446-3.3971 8.9176-2.1982 2.4979-5.2956 4.1715-8.8176 4.4712 1.6486-5.4954-4.2714-4.0966-7.5437-4.3713-.7494-.075-1.9234.0749-3.3222.3747-.2248-.2248-.4496-.4746-.6495-.7244-1.9983-2.3481-3.1723-5.3705-3.1723-8.6678 0-1.2739.1749-2.5228.5246-3.6719 1.5736-5.6702 6.7693-9.7918 12.9141-9.7918 6.1449 0 11.7901 4.4963 13.139 10.5162.2248.9492.3247 1.9234.3247 2.9475Z"/>
  <path stroke="#1D1D1B" stroke-miterlimit="10" stroke-width="2" d="M58.6009 45.5118c-.1249.3248-.2747.6495-.4496.9493-4.5961 1.0741-10.9408 3.2222-13.9133 3.8467-.4996.0999-1.0241.2998-1.5987.6245-3.3222-1.9484-5.5453-5.5453-5.5453-9.6419 0-6.1698 4.9958-11.1906 11.1656-11.1906 2.9975 0 5.6952 1.174 7.6936 3.0724-.3498 1.149-.5246 2.398-.5246 3.6719 0 3.2973 1.174 6.3197 3.1723 8.6677ZM100.665 42.1406c0 3.3472-1.4739 6.3447-3.7969 8.368-.7494.6744-1.5987 1.2489-2.5229 1.6736-1.4738.7243-3.1224 1.124-4.846 1.124-4.8958 0-9.0674-3.1473-10.5661-7.5436 2.1232-2.3731 3.3972-5.4954 3.3972-8.9176 0-1.0241-.1-1.9983-.3248-2.9475 1.9734-1.8234 4.6212-2.9225 7.4937-2.9225 6.1699 0 11.1658 4.9958 11.1658 11.1656Z"/>
  <path stroke="#1D1D1B" stroke-linecap="round" stroke-linejoin="round" stroke-width="2" d="m38.3684 82.0807-13.4387 5.1706-5.1707-24.0548 13.189-5.0208.3247 1.4738 4.0216 17.7101 1.0741 4.7211Z"/>
  <path stroke="#1D1D1B" stroke-linecap="round" stroke-linejoin="round" stroke-width="2" d="M106.685 55.3027S85.4782 71.9138 82.9053 72.7131c-2.5728.7743-12.0149 4.4962-19.1839 4.6461-7.169.1499-26.4278 0-26.4278 0L33.272 59.6491s5.2955-6.5945 9.3671-8.7177c.5745-.3247 1.0991-.5246 1.5987-.6245 2.9725-.6245 9.3172-2.7727 13.9133-3.8468.3747-.0749.7494-.1748 1.0991-.2248 1.3988-.2997 2.5728-.4496 3.3222-.3747 3.2722.2748 9.1923-1.124 7.5437 4.3714 0 .025-.025.0499-.025.0749 0 0-7.7935 8.293-18.2597 8.7177 0 0 26.0781 2.5978 30.4994.5745 2.5229-1.124 7.7935-4.6211 12.0149-7.4188.9243-.4246 1.7735-.9991 2.5229-1.6736 1.9983-1.3238 3.4224-2.2231 3.6474-2.2231.724 0 7.743-.1249 6.169 7.0191Z"/>
  <path stroke="#1D1D1B" stroke-linecap="round" stroke-linejoin="round" stroke-width="2" d="M96.8681 50.5074c-.7494.6744-1.5987 1.2489-2.5229 1.6736.8993-.5995 1.7735-1.174 2.5229-1.6736ZM71.7643 31.9487s-4.3713-3.5471-6.0199 1.099c-1.6487 4.6461 6.5195 1.4988 6.8692 5.2207.3497 3.7218-3.7968 5.3455-8.293 2.2481M68.8923 28.7516v1.8985M68.8923 42.1635v1.224M90.8988 38.3934s-3.0724-2.4979-4.2214.7744c-1.149 3.2722 4.5711 1.0491 4.8209 3.6719.2498 2.6228-2.6727 3.7468-5.8201 1.5737M88.8757 36.1452v1.3489M88.8757 45.562v.8492M50.7326 37.9678s-3.0724-2.4979-4.2215.7744c-1.149 3.2722 4.5712 1.0491 4.821 3.6719.2498 2.6228-2.6728 3.7468-5.8201 1.5737M48.7097 35.7197v1.3488M48.7097 45.1378v.8493"/>
</svg>
