<svg xmlns="http://www.w3.org/2000/svg" fill="none" viewBox="0 0 145 131">
  <path fill="#143FCC" d="M60.5378 120.609c33.3053 0 60.3042-26.999 60.3042-60.3044C120.842 26.9993 93.8431 0 60.5378 0S.233154 26.9993.233154 60.3046c0 33.3054 26.999346 60.3044 60.304646 60.3044Z" opacity=".5"/>
  <path stroke="#1D1D1B" stroke-linecap="round" stroke-linejoin="round" stroke-width="2" d="M134.156 46.9916H43.3406c-4.9365 0-8.9383 4.0018-8.9383 8.9382v65.1322c0 4.936 4.0018 8.938 8.9383 8.938h90.8154c4.936 0 8.938-4.002 8.938-8.938V55.9298c0-4.9364-4.002-8.9382-8.938-8.9382ZM40.8889 62.0393h96.6231M72.1162 76.4086h49.2918M72.1162 86.3651h13.7279M72.1162 101.186h27.2295M72.1162 110.464H85.731"/>
  <path fill="#E30613" stroke="#1D1D1B" stroke-linecap="round" stroke-linejoin="round" stroke-width="2" d="M46.3951 54.6854c.2291 0 .4148-.1857.4148-.4148s-.1857-.4149-.4148-.4149-.4149.1858-.4149.4149.1858.4148.4149.4148ZM56.1251 54.6854c.2291 0 .4148-.1857.4148-.4148s-.1857-.4149-.4148-.4149c-.2292 0-.4149.1858-.4149.4149s.1857.4148.4149.4148Z"/>
  <path stroke="#1D1D1B" stroke-linecap="round" stroke-linejoin="round" stroke-width="2" d="M65.8555 54.6854c.2291 0 .4149-.1857.4149-.4148s-.1858-.4149-.4149-.4149-.4148.1858-.4148.4149.1857.4148.4148.4148ZM60.5379 76.9744H47.7905v12.7473h12.7474V76.9744Z"/>
  <path stroke="#1D1D1B" stroke-linecap="round" stroke-linejoin="round" stroke-width="2" d="m51.9011 82.3673 2.8286 2.8286 10.4845-13.9542M60.5379 101.111H47.7905v12.748h12.7474v-12.748Z"/>
  <path stroke="#1D1D1B" stroke-linecap="round" stroke-linejoin="round" stroke-width="2" d="m51.9011 106.542 2.8286 2.791 10.4845-13.9542"/>
</svg>
