<svg xmlns="http://www.w3.org/2000/svg" fill="none" viewBox="0 0 122 118">
  <path fill="#209EEB" d="M39.6604 79.3208c21.9038 0 39.6604-17.7566 39.6604-39.6604C79.3208 17.7566 61.5642 0 39.6604 0 17.7566 0 0 17.7566 0 39.6604c0 21.9038 17.7566 39.6604 39.6604 39.6604ZM97.4469 118c13.3481 0 24.1681-10.82 24.1681-24.1681 0-13.3477-10.82-24.1681-24.1681-24.1681-13.3477 0-24.1681 10.8204-24.1681 24.1681C73.2788 107.18 84.0992 118 97.4469 118Z" opacity=".5"/>
  <path stroke="#0C0D21" stroke-linecap="round" stroke-linejoin="round" stroke-width="2" d="M81.1025 30.21v35.4775c-.4131-.0258-.8521-.0517-1.291-.0517-8.9339 0-16.1637 7.2298-16.1637 16.1637 0 1.6784.2582 3.305.723 4.8285h-2.7112l-8.9597 4.7509-7.3589-4.5444-7.2556 4.5444V29.0223l7.3589 5.319 7.2556-4.8284 7.333 4.9317 7.1782-4.751 7.1522 4.751 6.7392-4.2346ZM44.3083 46.477h5.1383M45.0828 53.681h3.5632M53.6812 46.477h19.2363M53.6812 53.681h14.6144M44.3083 64.6289h23.9874M44.3083 71.7296h14.6145"/>
  <path stroke="#0C0D21" stroke-linecap="round" stroke-linejoin="round" stroke-width="2" d="M96.0009 81.7996c0 8.9339-7.2298 16.1895-16.1895 16.1895-7.2556 0-13.3751-4.7768-15.4407-11.3611-.4648-1.5234-.723-3.1501-.723-4.8284 0-8.9339 7.2298-16.1637 16.1637-16.1637.4389 0 .8779.0258 1.291.0517 8.3659.6713 14.8985 7.617 14.8985 16.112Z"/>
  <path stroke="#0C0D21" stroke-linecap="round" stroke-linejoin="round" stroke-width="2" d="M84.4593 75.5768s-6.8167-2.4788-9.5795.4906c-1.9623 2.0914-.8262 7.333 4.1571 6.5067 4.9834-.8262 8.5725 5.1383 3.9506 6.6101s-9.0114-.1033-9.0114-.1033M79.5273 70.5416v4.0796M79.5273 90.7852v3.0468"/>
</svg>
