<svg xmlns="http://www.w3.org/2000/svg" fill="none" viewBox="0 0 24 24">
  <path fill="currentColor" fill-rule="evenodd"
    d="M8.172 15.829c3.845 3.845 7.408 4.266 8.454 4.305 1.264.046 2.554-.986 3.112-2.043-.89-1.044-2.049-1.854-3.319-2.732-.748.748-1.67 2.138-2.9 1.64-.699-.281-2.425-1.076-3.933-2.585C8.077 12.906 7.283 11.18 7 10.482c-.498-1.23103.896-2.15603 1.645-2.90503-.878-1.29-1.674-2.479-2.716-3.324-1.072.56-2.11 1.84-2.063 3.121.039 1.046.46 4.60903 4.306 8.45503Zm8.38 6.303c-1.44-.053-5.521-.616-9.795-4.89-4.273-4.273-4.836-8.35303-4.89-9.79403-.08-2.196 1.602-4.329 3.545-5.162.23398-.10103.4902-.1395.74353-.11162.25333.02787.49506.12113.70147.27062 1.608 1.173 2.717 2.95 3.67 4.342.1982.28945.2891.6391.2567.98845-.0323.34934-.1857.67639-.4337.92455L8.994 10.057C9.309 10.752 9.95 11.95 11 13c1.05 1.05 2.248 1.691 2.944 2.006l1.355-1.356c.2491-.2485.5775-.4018.928-.433.3505-.0313.7008.0614.99.262 1.42.984 3.088 2.077 4.304 3.634.1616.2079.2644.4554.2977.7166.0332.2612-.0043.5266-.1087.7684-.837 1.953-2.955 3.615-5.158 3.534Z"
    clip-rule="evenodd" />
</svg>