<svg xmlns="http://www.w3.org/2000/svg" xmlns:xlink="http://www.w3.org/1999/xlink" fill="none" viewBox="0 0 134 131">
  <defs>
    <path id="reuse-0" stroke="#0C0D21" stroke-linecap="round" stroke-linejoin="round" stroke-width="2" d="M132.53 83.4185v22.6635h-31.633c-3.1 0-5.9421-1.255-7.9722-3.322-2.067-2.03-3.322-4.8725-3.322-8.0099 0-6.2379 5.0568-11.3316 11.2942-11.3316h31.633Z"/>
  </defs>
  <path fill="#143FCC" d="M59.1144 118.041c32.5961 0 59.0206-26.4245 59.0206-59.0206C118.135 26.4244 91.7105 0 59.1144 0 26.5183 0 .0939941 26.4244.0939941 59.0204c0 32.5961 26.4243059 59.0206 59.0204059 59.0206Z" opacity=".5"/>
  <path stroke="#0C0D21" stroke-linecap="round" stroke-linejoin="round" stroke-width="2" d="M89.6028 94.75c0 3.1374 1.255 5.98 3.322 8.01 2.0301 2.067 4.8722 3.322 7.9732 3.322h31.632v16.056c0 4.355-3.506 7.862-7.825 7.862H46.6386c-4.3186 0-7.8251-3.507-7.8251-7.862V68.6171c0-4.3186 3.5065-7.8251 7.8251-7.8251h78.0664c4.319 0 7.825 3.5065 7.825 7.8251v14.8012h-31.632c-6.2384 0-11.2952 5.0937-11.2952 11.3317Z"/>
  <use xlink:href="#reuse-0" stroke-linecap="round" stroke-linejoin="round" stroke-width="2"/>
  <use xlink:href="#reuse-0" stroke-linecap="round" stroke-linejoin="round" stroke-width="2"/>
  <path stroke="#0C0D21" stroke-linecap="round" stroke-linejoin="round" stroke-width="2" d="M102.521 100.028c2.916 0 5.279-2.3628 5.279-5.2779s-2.363-5.2783-5.279-5.2783c-2.9147 0-5.2778 2.3632-5.2778 5.2783s2.3631 5.2779 5.2778 5.2779ZM122.158 60.792H50.0714L48.595 47.135l11.184-1.2181 60.091-6.4594 2.288 21.3345Z"/>
  <path stroke="#0C0D21" stroke-linecap="round" stroke-linejoin="round" stroke-width="2" d="M51.1416 59.0202s5.0937-2.5099 8.6371-13.1033M109.055 41.5612s2.473 4.7615 9.855 7.0868M96.247 60.7919H77.8654c-.3322-.8489-.5906-1.7348-.7382-2.6576-1.1074-6.2748 2.3992-12.1436 7.7881-13.0664 5.389-.9228 10.5935 3.4327 11.7008 9.7445.3691 2.1039.2214 4.134-.3691 5.9795Z"/>
</svg>
