<svg xmlns="http://www.w3.org/2000/svg" fill="none" viewBox="0 0 119 118">
  <path fill="#209EEB" d="M79.759 77.4399c21.384 0 38.72-17.3355 38.72-38.72C118.479 17.3355 101.143 0 79.759 0 58.3746 0 41.0391 17.3355 41.0391 38.7199c0 21.3845 17.3355 38.72 38.7199 38.72ZM23.595 118c13.0311 0 23.5949-10.564 23.5949-23.595 0-13.0312-10.5638-23.595-23.5949-23.595C10.5638 70.81 0 81.3738 0 94.405 0 107.436 10.5638 118 23.595 118Z" opacity=".5"/>
  <path stroke="#1D1D1B" stroke-miterlimit="10" stroke-width="2" d="M92.464 83.9437c-.4537.5294-.7058 1.21-.605 1.8655l.5546 3.8316c.1261.8823-.7562 1.5629-1.5629 1.21l-3.3023-1.3864c-.6806-.2773-1.4368-.2017-2.0923.1764-8.6968 5.1425-18.5281 4.9408-23.973-1.815-3.2267-4.0081-3.8317-8.9741-2.3192-13.8645l.3277.6302c.5294.9831 1.9158 1.0083 2.4704.0504l2.4452-4.1846c.4286-.731 1.1848-1.21 2.0419-1.336 9.4783-1.4873 17.0912-6.6046 20.0154-13.8898 3.5543.5042 6.7558 2.1679 9.1254 5.1173 5.3941 6.6802 3.63 16.2341-3.1259 23.5949Z"/>
  <path stroke="#1D1D1B" stroke-miterlimit="10" stroke-width="2" d="M60.6763 27.7797c-14.9737 0-27.0989 8.2179-27.0989 20.6708 0 1.1343.1008 2.2435.3025 3.3022 1.6637 9.2011 10.3102 15.7804 21.4018 17.419.8823.126 1.689.6554 2.1175 1.4621l1.6386 3.1006.126.2268.3277.6303c.5294.9831 1.9158 1.0083 2.4704.0504l2.4452-4.1846c.4286-.731 1.1848-1.21 2.0419-1.336 9.4783-1.4873 17.0912-6.6046 20.0154-13.8898.8571-2.0923 1.3108-4.361 1.3108-6.781 0-12.4529-12.1252-20.6708-27.0989-20.6708Zm9.6044 17.6962c1.7645 0 3.1762 1.4369 3.1762 3.2014 0 1.7646-1.4117 3.1763-3.1762 3.1763-1.7646 0-3.1763-1.4369-3.1763-3.1763 0-1.7393 1.4369-3.2014 3.1763-3.2014Zm-20.7969 0c1.7394 0 3.1763 1.4369 3.1763 3.2014 0 1.7646-1.4369 3.1763-3.1763 3.1763-1.7394 0-3.1762-1.4369-3.1762-3.1763 0-1.7393 1.4116-3.2014 3.1762-3.2014Zm7.2096 3.2014c0-1.7645 1.4369-3.2014 3.1762-3.2014 1.7394 0 3.2015 1.4369 3.2015 3.2014 0 1.7646-1.4369 3.1763-3.2015 3.1763-1.7645 0-3.1762-1.4369-3.1762-3.1763Z"/>
  <path stroke="#1D1D1B" stroke-miterlimit="10" stroke-width="2" d="M59.0379 73.7344c-.2269 2.0418-.958 4.0081-2.2688 5.8231-4.4618 6.1256-13.0327 6.8062-20.8724 2.7477-.5546-.2773-1.1848-.3277-1.7394-.0756l-3.1511 1.336c-.7058.3277-1.4872-.2773-1.3864-1.0587l.4285-3.1259c.0757-.6554-.1512-1.2856-.605-1.7393-6.4029-6.2517-8.4952-14.6965-3.9829-20.8977 2.0923-2.8738 5.0669-4.4871 8.4196-4.9913 1.6637 9.2011 10.3102 15.7804 21.4018 17.419.8823.126 1.689.6554 2.1175 1.4621l1.6386 3.1006ZM52.6601 48.6773c0 1.7394-1.4369 3.1763-3.1762 3.1763-1.7394 0-3.1763-1.4369-3.1763-3.1763 0-1.7393 1.4117-3.2014 3.1763-3.2014 1.7645 0 3.1762 1.4369 3.1762 3.2014ZM63.0713 48.6773c0 1.7394-1.4369 3.1763-3.2015 3.1763-1.7645 0-3.1762-1.4369-3.1762-3.1763 0-1.7393 1.4369-3.2014 3.1762-3.2014 1.7394 0 3.2015 1.4369 3.2015 3.2014ZM73.457 48.6773c0 1.7394-1.4117 3.1763-3.1763 3.1763-1.7645 0-3.1762-1.4369-3.1762-3.1763 0-1.7393 1.4369-3.2014 3.1762-3.2014 1.7394 0 3.1763 1.4369 3.1763 3.2014Z"/>
  <path stroke="#1D1D1B" stroke-miterlimit="10" stroke-width="2" d="M52.6601 48.6773c0 1.7394-1.4369 3.1763-3.1762 3.1763-1.7394 0-3.1763-1.4369-3.1763-3.1763 0-1.7393 1.4117-3.2014 3.1763-3.2014 1.7645 0 3.1762 1.4369 3.1762 3.2014ZM63.0713 48.6773c0 1.7394-1.4369 3.1763-3.2015 3.1763-1.7645 0-3.1762-1.4369-3.1762-3.1763 0-1.7393 1.4369-3.2014 3.1762-3.2014 1.7394 0 3.2015 1.4369 3.2015 3.2014ZM73.457 48.6773c0 1.7394-1.4117 3.1763-3.1763 3.1763-1.7645 0-3.1762-1.4369-3.1762-3.1763 0-1.7393 1.4369-3.2014 3.1762-3.2014 1.7394 0 3.1763 1.4369 3.1763 3.2014Z"/>
</svg>
