<svg xmlns="http://www.w3.org/2000/svg" fill="none" viewBox="0 0 142 131">
  <path fill="#143FCC" d="M57.0132 114.026c31.4875 0 57.0128-25.5253 57.0128-57.0128C114.026 25.5257 88.5007 0 57.0132 0 25.5257 0 0 25.5257 0 57.0132c0 31.4875 25.5257 57.0128 57.0132 57.0128Z" opacity=".5"/>
  <path stroke="#0C0D21" stroke-linecap="round" stroke-linejoin="round" stroke-width="2" d="M78.5848 56.2644v27.8827c0 4.4569 3.6012 8.0224 8.0225 8.0224h2.7098v9.4135l12.6219-9.4135h3.138v30.3785c0 4.1-3.352 7.452-7.4522 7.452H59.5804c-4.1004 0-7.452-3.352-7.452-7.452V34.6572c0-4.136 3.3516-7.452 7.452-7.452h38.0444c4.1002 0 7.4522 3.316 7.4522 7.452V48.242H86.6073c-4.4213 0-8.0225 3.6012-8.0225 8.0224ZM52.1284 115.702h52.9126M73.593 122.833h10.1975"/>
  <path stroke="#0C0D21" stroke-linecap="round" stroke-linejoin="round" stroke-width="2" d="M140.233 56.2646v27.8826c0 4.4569-3.601 8.0225-8.022 8.0225h-30.272l-12.6217 9.4133v-9.4133h-2.7098c-4.4213 0-8.0225-3.5656-8.0225-8.0225V56.2646c0-4.4213 3.6012-8.0225 8.0225-8.0225h45.6035c4.421 0 8.022 3.6012 8.022 8.0225Z"/>
</svg>
