<svg xmlns="http://www.w3.org/2000/svg" fill="none" viewBox="0 0 130 130">
  <path fill="#CBDFFF" d="M64.7 129.7A64.7 64.7 0 1 0 64.7.3a64.7 64.7 0 0 0 0 129.4Z"/>
  <path fill="#143FCC" d="M21.7 43.3a21.6 21.6 0 1 0 0-43.3 21.6 21.6 0 0 0 0 43.3ZM107.7 130a21.6 21.6 0 1 0 0-43.3 21.6 21.6 0 0 0 0 43.3Z" opacity=".5"/>
  <path stroke="#000" stroke-linecap="round" stroke-linejoin="round" stroke-width="2" d="M94 34.1v69.4c0 1.8-1.5 3.3-3.3 3.3h-52a3.3 3.3 0 0 1-3.3-3.3V34.1c0-1.8 1.5-3.3 3.3-3.3h11v9.8h30.5v-9.8h10.5c1.8 0 3.3 1.5 3.3 3.3Z"/>
  <path stroke="#000" stroke-linecap="round" stroke-linejoin="round" stroke-width="2" d="M88.8 39v59.6c0 1.8-1.5 3.3-3.3 3.3H43.9a3.3 3.3 0 0 1-3.2-3.3V39c0-1.8 1.4-3.3 3.2-3.3h5.8v4.8h30.5v-4.8h5.3c1.8 0 3.3 1.5 3.3 3.3Z"/>
  <path stroke="#000" stroke-linecap="round" stroke-linejoin="round" stroke-width="2" d="M58.9 55.3H51v7.2H59v-7.2ZM58.9 68.8H51v7.3H59v-7.3ZM58.9 82.4H51v7.2H59v-7.2ZM68.3 59.7l2.6 2.8 9.4-9.3M68.3 72.8l2.6 2.8 9.4-9.3M68.3 86l2.6 2.7 9.4-9.3M80.2 29.3v11.3H49.7V29.3H54v-6.1h21.3v6.1h5Z"/>
  <path stroke="#000" stroke-linecap="round" stroke-linejoin="round" stroke-width="2" d="M65 32.3a2.4 2.4 0 1 0 0-4.8 2.4 2.4 0 0 0 0 4.8Z"/>
</svg>
