<svg xmlns="http://www.w3.org/2000/svg" fill="none" viewBox="0 0 30 30">
  <path fill="currentColor"
    d="M16.29 2.5c.9 0 1.82 0 2.73.03h.24l.9.04c1.32.07 2.23.28 3.03.59.82.31 1.52.74 2.21 1.44a6.13 6.13 0 0 1 1.44 2.21c.31.8.52 1.7.59 3.04l.03.89.01.24.03 2.73v2.57c0 .92 0 1.83-.03 2.74v.24l-.04.9a9.26 9.26 0 0 1-.59 3.03 6.1 6.1 0 0 1-1.44 2.21 6.14 6.14 0 0 1-2.21 1.44c-.8.31-1.7.52-3.04.58l-.89.04-.24.01-2.73.03h-2.57c-.92 0-1.83 0-2.74-.03h-.24l-.9-.04a9.28 9.28 0 0 1-3.03-.59A6.11 6.11 0 0 1 4.6 25.4a6.13 6.13 0 0 1-1.44-2.21c-.31-.8-.52-1.7-.59-3.04 0-.3-.02-.59-.03-.89v-.24a98.8 98.8 0 0 1-.04-2.74v-2.57c0-.9 0-1.82.03-2.73v-.24l.04-.9c.07-1.32.28-2.23.58-3.03A6.1 6.1 0 0 1 4.6 4.6a6.12 6.12 0 0 1 2.21-1.44c.8-.31 1.7-.52 3.04-.59l.89-.03h.24c.91-.03 1.82-.04 2.73-.04h2.57ZM15 8.75a6.25 6.25 0 1 0 0 12.5 6.25 6.25 0 0 0 0-12.5Zm0 2.5a3.75 3.75 0 1 1 0 7.5 3.75 3.75 0 0 1 0-7.5Zm6.56-4.37a1.56 1.56 0 0 0 0 3.12 1.56 1.56 0 1 0 0-3.13Z" />
</svg>