<svg xmlns="http://www.w3.org/2000/svg" fill="none" viewBox="0 0 24 24">
  <path fill="currentColor" fill-rule="evenodd"
    d="M17.4 3A45.3 45.3 0 0 0 6.6 3c-1.3.1-2 .4-2.6 1-.6.6-.9 1.3-1 2.6a45.3 45.3 0 0 0 0 10.8c.1 1.3.4 2 1 2.6.5.5 1 .8 2 1L21 6c-.2-1-.5-1.5-1-2-.6-.6-1.3-.9-2.6-1Zm3.8 4.9L15 14l5.4 5.4c.3-.5.5-1.1.6-2l.1-5.4V7.9Zm-1.8 12.6L14 15l-6.1 6a79.3 79.3 0 0 0 9.5 0c.9-.1 1.5-.3 2-.6Zm-1.8-19c1.4.1 2.6.5 3.5 1.4.9 1 1.3 2 1.5 3.5.2 1.4.2 3.2.2 5.5v.2c0 2.3 0 4-.2 5.5A5.7 5.7 0 0 1 21 21c-1 .9-2 1.3-3.5 1.5l-5.5.1h-.2l-5.5-.1A5.7 5.7 0 0 1 3 21c-.9-1-1.3-2-1.5-3.5L1.3 12v-.2l.1-5.5C1.6 5 2 3.8 3 3 4 2 5 1.6 6.4 1.4l5.5-.1h.2l5.5.1ZM4.7 8.7c0-2.3 2-4 4.3-4s4.3 1.7 4.3 4A6 6 0 0 1 9.8 14a2.4 2.4 0 0 1-1.8 0 6 6 0 0 1-3.4-5.3ZM9 6.2c-1.6 0-2.8 1.2-2.8 2.6 0 1.5 1 3.3 2.5 3.9a.9.9 0 0 0 .6 0c1.5-.6 2.4-2.4 2.4-4 0-1.3-1.1-2.4-2.7-2.4Z"
    clip-rule="evenodd" />
  <path fill="currentColor" d="M10 9a1 1 0 1 1-2 0 1 1 0 0 1 2 0Z" />
</svg>